<?xml version="1.0" encoding="utf-8" standalone="no"?>
<!DOCTYPE svg PUBLIC "-//W3C//DTD SVG 1.1//EN"
  "http://www.w3.org/Graphics/SVG/1.1/DTD/svg11.dtd">
<svg xmlns:xlink="http://www.w3.org/1999/xlink" width="460.8pt" height="345.6pt" viewBox="0 0 460.8 345.6" xmlns="http://www.w3.org/2000/svg" version="1.1">
 <metadata>
  <rdf:RDF xmlns:dc="http://purl.org/dc/elements/1.1/" xmlns:cc="http://creativecommons.org/ns#" xmlns:rdf="http://www.w3.org/1999/02/22-rdf-syntax-ns#">
   <cc:Work>
    <dc:type rdf:resource="http://purl.org/dc/dcmitype/StillImage"/>
    <dc:date>2023-03-16T22:04:10.784881</dc:date>
    <dc:format>image/svg+xml</dc:format>
    <dc:creator>
     <cc:Agent>
      <dc:title>Matplotlib v3.7.0, https://matplotlib.org/</dc:title>
     </cc:Agent>
    </dc:creator>
   </cc:Work>
  </rdf:RDF>
 </metadata>
 <defs>
  <style type="text/css">*{stroke-linejoin: round; stroke-linecap: butt}</style>
 </defs>
 <g id="figure_1">
  <g id="patch_1">
   <path d="M 0 345.6 
L 460.8 345.6 
L 460.8 0 
L 0 0 
z
" style="fill: #ffffff"/>
  </g>
  <g id="axes_1">
   <g id="patch_2">
    <path d="M 369.216 174.528 
C 369.216 157.055246 365.774248 139.752393 359.087715 123.609673 
C 352.401182 107.466954 342.599903 92.798303 330.2448 80.4432 
C 317.889697 68.088097 303.221046 58.286818 287.078327 51.600285 
C 270.935607 44.913752 253.632754 41.472 236.16 41.472 
C 218.687246 41.472 201.384393 44.913752 185.241673 51.600285 
C 169.098954 58.286818 154.430303 68.088097 142.0752 80.4432 
C 129.720097 92.798303 119.918818 107.466954 113.232285 123.609673 
C 106.545752 139.752393 103.104 157.055246 103.104 174.528 
C 103.104 192.000754 106.545752 209.303607 113.232285 225.446327 
C 119.918818 241.589046 129.720097 256.257697 142.0752 268.6128 
C 154.430303 280.967903 169.098954 290.769182 185.241673 297.455715 
C 201.384393 304.142248 218.687246 307.584 236.16 307.584 
C 253.632754 307.584 270.935607 304.142248 287.078327 297.455715 
C 303.221046 290.769182 317.889697 280.967903 330.2448 268.6128 
C 342.599903 256.257697 352.401182 241.589046 359.087715 225.446327 
C 365.774248 209.303607 369.216 192.000754 369.216 174.528 
M 236.16 174.528 
C 236.16 174.528 236.16 174.528 236.16 174.528 
C 236.16 174.528 236.16 174.528 236.16 174.528 
C 236.16 174.528 236.16 174.528 236.16 174.528 
C 236.16 174.528 236.16 174.528 236.16 174.528 
C 236.16 174.528 236.16 174.528 236.16 174.528 
C 236.16 174.528 236.16 174.528 236.16 174.528 
C 236.16 174.528 236.16 174.528 236.16 174.528 
C 236.16 174.528 236.16 174.528 236.16 174.528 
C 236.16 174.528 236.16 174.528 236.16 174.528 
C 236.16 174.528 236.16 174.528 236.16 174.528 
C 236.16 174.528 236.16 174.528 236.16 174.528 
C 236.16 174.528 236.16 174.528 236.16 174.528 
C 236.16 174.528 236.16 174.528 236.16 174.528 
C 236.16 174.528 236.16 174.528 236.16 174.528 
C 236.16 174.528 236.16 174.528 236.16 174.528 
C 236.16 174.528 236.16 174.528 236.16 174.528 
z
" style="fill: #ffffff"/>
   </g>
   <g id="matplotlib.axis_1">
    <g id="xtick_1">
     <g id="line2d_1">
      <path d="M 236.16 174.528 
L 236.16 41.472 
" clip-path="url(#p9cf7161ec7)" style="fill: none; stroke: #b0b0b0; stroke-width: 0.8; stroke-linecap: square"/>
     </g>
     <g id="text_1">
      <!-- 0° -->
      <g transform="translate(230.47875 30.231375) scale(0.1 -0.1)">
       <defs>
        <path id="DejaVuSans-30" d="M 2034 4250 
Q 1547 4250 1301 3770 
Q 1056 3291 1056 2328 
Q 1056 1369 1301 889 
Q 1547 409 2034 409 
Q 2525 409 2770 889 
Q 3016 1369 3016 2328 
Q 3016 3291 2770 3770 
Q 2525 4250 2034 4250 
z
M 2034 4750 
Q 2819 4750 3233 4129 
Q 3647 3509 3647 2328 
Q 3647 1150 3233 529 
Q 2819 -91 2034 -91 
Q 1250 -91 836 529 
Q 422 1150 422 2328 
Q 422 3509 836 4129 
Q 1250 4750 2034 4750 
z
" transform="scale(0.015625)"/>
        <path id="DejaVuSans-b0" d="M 1600 4347 
Q 1350 4347 1178 4173 
Q 1006 4000 1006 3750 
Q 1006 3503 1178 3333 
Q 1350 3163 1600 3163 
Q 1850 3163 2022 3333 
Q 2194 3503 2194 3750 
Q 2194 3997 2020 4172 
Q 1847 4347 1600 4347 
z
M 1600 4750 
Q 1800 4750 1984 4673 
Q 2169 4597 2303 4453 
Q 2447 4313 2519 4134 
Q 2591 3956 2591 3750 
Q 2591 3338 2302 3052 
Q 2013 2766 1594 2766 
Q 1172 2766 890 3047 
Q 609 3328 609 3750 
Q 609 4169 896 4459 
Q 1184 4750 1600 4750 
z
" transform="scale(0.015625)"/>
       </defs>
       <use xlink:href="#DejaVuSans-30"/>
       <use xlink:href="#DejaVuSans-b0" x="63.623047"/>
      </g>
     </g>
    </g>
    <g id="xtick_2">
     <g id="line2d_2">
      <path d="M 236.16 174.528 
L 142.0752 80.4432 
" clip-path="url(#p9cf7161ec7)" style="fill: none; stroke: #b0b0b0; stroke-width: 0.8; stroke-linecap: square"/>
     </g>
     <g id="text_2">
      <!-- 45° -->
      <g transform="translate(123.313205 73.30308) scale(0.1 -0.1)">
       <defs>
        <path id="DejaVuSans-34" d="M 2419 4116 
L 825 1625 
L 2419 1625 
L 2419 4116 
z
M 2253 4666 
L 3047 4666 
L 3047 1625 
L 3713 1625 
L 3713 1100 
L 3047 1100 
L 3047 0 
L 2419 0 
L 2419 1100 
L 313 1100 
L 313 1709 
L 2253 4666 
z
" transform="scale(0.015625)"/>
        <path id="DejaVuSans-35" d="M 691 4666 
L 3169 4666 
L 3169 4134 
L 1269 4134 
L 1269 2991 
Q 1406 3038 1543 3061 
Q 1681 3084 1819 3084 
Q 2600 3084 3056 2656 
Q 3513 2228 3513 1497 
Q 3513 744 3044 326 
Q 2575 -91 1722 -91 
Q 1428 -91 1123 -41 
Q 819 9 494 109 
L 494 744 
Q 775 591 1075 516 
Q 1375 441 1709 441 
Q 2250 441 2565 725 
Q 2881 1009 2881 1497 
Q 2881 1984 2565 2268 
Q 2250 2553 1709 2553 
Q 1456 2553 1204 2497 
Q 953 2441 691 2322 
L 691 4666 
z
" transform="scale(0.015625)"/>
       </defs>
       <use xlink:href="#DejaVuSans-34"/>
       <use xlink:href="#DejaVuSans-35" x="63.623047"/>
       <use xlink:href="#DejaVuSans-b0" x="127.246094"/>
      </g>
     </g>
    </g>
    <g id="xtick_3">
     <g id="line2d_3">
      <path d="M 236.16 174.528 
L 103.104 174.528 
" clip-path="url(#p9cf7161ec7)" style="fill: none; stroke: #b0b0b0; stroke-width: 0.8; stroke-linecap: square"/>
     </g>
     <g id="text_3">
      <!-- 90° -->
      <g transform="translate(80.2415 177.287375) scale(0.1 -0.1)">
       <defs>
        <path id="DejaVuSans-39" d="M 703 97 
L 703 672 
Q 941 559 1184 500 
Q 1428 441 1663 441 
Q 2288 441 2617 861 
Q 2947 1281 2994 2138 
Q 2813 1869 2534 1725 
Q 2256 1581 1919 1581 
Q 1219 1581 811 2004 
Q 403 2428 403 3163 
Q 403 3881 828 4315 
Q 1253 4750 1959 4750 
Q 2769 4750 3195 4129 
Q 3622 3509 3622 2328 
Q 3622 1225 3098 567 
Q 2575 -91 1691 -91 
Q 1453 -91 1209 -44 
Q 966 3 703 97 
z
M 1959 2075 
Q 2384 2075 2632 2365 
Q 2881 2656 2881 3163 
Q 2881 3666 2632 3958 
Q 2384 4250 1959 4250 
Q 1534 4250 1286 3958 
Q 1038 3666 1038 3163 
Q 1038 2656 1286 2365 
Q 1534 2075 1959 2075 
z
" transform="scale(0.015625)"/>
       </defs>
       <use xlink:href="#DejaVuSans-39"/>
       <use xlink:href="#DejaVuSans-30" x="63.623047"/>
       <use xlink:href="#DejaVuSans-b0" x="127.246094"/>
      </g>
     </g>
    </g>
    <g id="xtick_4">
     <g id="line2d_4">
      <path d="M 236.16 174.528 
L 142.0752 268.6128 
" clip-path="url(#p9cf7161ec7)" style="fill: none; stroke: #b0b0b0; stroke-width: 0.8; stroke-linecap: square"/>
     </g>
     <g id="text_4">
      <!-- 135° -->
      <g transform="translate(120.131955 281.27167) scale(0.1 -0.1)">
       <defs>
        <path id="DejaVuSans-31" d="M 794 531 
L 1825 531 
L 1825 4091 
L 703 3866 
L 703 4441 
L 1819 4666 
L 2450 4666 
L 2450 531 
L 3481 531 
L 3481 0 
L 794 0 
L 794 531 
z
" transform="scale(0.015625)"/>
        <path id="DejaVuSans-33" d="M 2597 2516 
Q 3050 2419 3304 2112 
Q 3559 1806 3559 1356 
Q 3559 666 3084 287 
Q 2609 -91 1734 -91 
Q 1441 -91 1130 -33 
Q 819 25 488 141 
L 488 750 
Q 750 597 1062 519 
Q 1375 441 1716 441 
Q 2309 441 2620 675 
Q 2931 909 2931 1356 
Q 2931 1769 2642 2001 
Q 2353 2234 1838 2234 
L 1294 2234 
L 1294 2753 
L 1863 2753 
Q 2328 2753 2575 2939 
Q 2822 3125 2822 3475 
Q 2822 3834 2567 4026 
Q 2313 4219 1838 4219 
Q 1578 4219 1281 4162 
Q 984 4106 628 3988 
L 628 4550 
Q 988 4650 1302 4700 
Q 1616 4750 1894 4750 
Q 2613 4750 3031 4423 
Q 3450 4097 3450 3541 
Q 3450 3153 3228 2886 
Q 3006 2619 2597 2516 
z
" transform="scale(0.015625)"/>
       </defs>
       <use xlink:href="#DejaVuSans-31"/>
       <use xlink:href="#DejaVuSans-33" x="63.623047"/>
       <use xlink:href="#DejaVuSans-35" x="127.246094"/>
       <use xlink:href="#DejaVuSans-b0" x="190.869141"/>
      </g>
     </g>
    </g>
    <g id="xtick_5">
     <g id="line2d_5">
      <path d="M 236.16 174.528 
L 236.16 307.584 
" clip-path="url(#p9cf7161ec7)" style="fill: none; stroke: #b0b0b0; stroke-width: 0.8; stroke-linecap: square"/>
     </g>
     <g id="text_5">
      <!-- 180° -->
      <g transform="translate(224.11625 324.343375) scale(0.1 -0.1)">
       <defs>
        <path id="DejaVuSans-38" d="M 2034 2216 
Q 1584 2216 1326 1975 
Q 1069 1734 1069 1313 
Q 1069 891 1326 650 
Q 1584 409 2034 409 
Q 2484 409 2743 651 
Q 3003 894 3003 1313 
Q 3003 1734 2745 1975 
Q 2488 2216 2034 2216 
z
M 1403 2484 
Q 997 2584 770 2862 
Q 544 3141 544 3541 
Q 544 4100 942 4425 
Q 1341 4750 2034 4750 
Q 2731 4750 3128 4425 
Q 3525 4100 3525 3541 
Q 3525 3141 3298 2862 
Q 3072 2584 2669 2484 
Q 3125 2378 3379 2068 
Q 3634 1759 3634 1313 
Q 3634 634 3220 271 
Q 2806 -91 2034 -91 
Q 1263 -91 848 271 
Q 434 634 434 1313 
Q 434 1759 690 2068 
Q 947 2378 1403 2484 
z
M 1172 3481 
Q 1172 3119 1398 2916 
Q 1625 2713 2034 2713 
Q 2441 2713 2670 2916 
Q 2900 3119 2900 3481 
Q 2900 3844 2670 4047 
Q 2441 4250 2034 4250 
Q 1625 4250 1398 4047 
Q 1172 3844 1172 3481 
z
" transform="scale(0.015625)"/>
       </defs>
       <use xlink:href="#DejaVuSans-31"/>
       <use xlink:href="#DejaVuSans-38" x="63.623047"/>
       <use xlink:href="#DejaVuSans-30" x="127.246094"/>
       <use xlink:href="#DejaVuSans-b0" x="190.869141"/>
      </g>
     </g>
    </g>
    <g id="xtick_6">
     <g id="line2d_6">
      <path d="M 236.16 174.528 
L 330.2448 268.6128 
" clip-path="url(#p9cf7161ec7)" style="fill: none; stroke: #b0b0b0; stroke-width: 0.8; stroke-linecap: square"/>
     </g>
     <g id="text_6">
      <!-- 225° -->
      <g transform="translate(328.100545 281.27167) scale(0.1 -0.1)">
       <defs>
        <path id="DejaVuSans-32" d="M 1228 531 
L 3431 531 
L 3431 0 
L 469 0 
L 469 531 
Q 828 903 1448 1529 
Q 2069 2156 2228 2338 
Q 2531 2678 2651 2914 
Q 2772 3150 2772 3378 
Q 2772 3750 2511 3984 
Q 2250 4219 1831 4219 
Q 1534 4219 1204 4116 
Q 875 4013 500 3803 
L 500 4441 
Q 881 4594 1212 4672 
Q 1544 4750 1819 4750 
Q 2544 4750 2975 4387 
Q 3406 4025 3406 3419 
Q 3406 3131 3298 2873 
Q 3191 2616 2906 2266 
Q 2828 2175 2409 1742 
Q 1991 1309 1228 531 
z
" transform="scale(0.015625)"/>
       </defs>
       <use xlink:href="#DejaVuSans-32"/>
       <use xlink:href="#DejaVuSans-32" x="63.623047"/>
       <use xlink:href="#DejaVuSans-35" x="127.246094"/>
       <use xlink:href="#DejaVuSans-b0" x="190.869141"/>
      </g>
     </g>
    </g>
    <g id="xtick_7">
     <g id="line2d_7">
      <path d="M 236.16 174.528 
L 369.216 174.528 
" clip-path="url(#p9cf7161ec7)" style="fill: none; stroke: #b0b0b0; stroke-width: 0.8; stroke-linecap: square"/>
     </g>
     <g id="text_7">
      <!-- 270° -->
      <g transform="translate(371.17225 177.287375) scale(0.1 -0.1)">
       <defs>
        <path id="DejaVuSans-37" d="M 525 4666 
L 3525 4666 
L 3525 4397 
L 1831 0 
L 1172 0 
L 2766 4134 
L 525 4134 
L 525 4666 
z
" transform="scale(0.015625)"/>
       </defs>
       <use xlink:href="#DejaVuSans-32"/>
       <use xlink:href="#DejaVuSans-37" x="63.623047"/>
       <use xlink:href="#DejaVuSans-30" x="127.246094"/>
       <use xlink:href="#DejaVuSans-b0" x="190.869141"/>
      </g>
     </g>
    </g>
    <g id="xtick_8">
     <g id="line2d_8">
      <path d="M 236.16 174.528 
L 330.2448 80.4432 
" clip-path="url(#p9cf7161ec7)" style="fill: none; stroke: #b0b0b0; stroke-width: 0.8; stroke-linecap: square"/>
     </g>
     <g id="text_8">
      <!-- 315° -->
      <g transform="translate(328.100545 73.30308) scale(0.1 -0.1)">
       <use xlink:href="#DejaVuSans-33"/>
       <use xlink:href="#DejaVuSans-31" x="63.623047"/>
       <use xlink:href="#DejaVuSans-35" x="127.246094"/>
       <use xlink:href="#DejaVuSans-b0" x="190.869141"/>
      </g>
     </g>
    </g>
   </g>
   <g id="matplotlib.axis_2">
    <g id="ytick_1">
     <g id="line2d_9">
      <path d="M 236.16 173.065846 
C 235.967992 173.065846 235.77785 173.103668 235.600458 173.177146 
C 235.423065 173.250624 235.261871 173.358331 235.126101 173.494101 
C 234.990331 173.629871 234.882624 173.791065 234.809146 173.968458 
C 234.735668 174.14585 234.697846 174.335992 234.697846 174.528 
C 234.697846 174.720008 234.735668 174.91015 234.809146 175.087542 
C 234.882624 175.264935 234.990331 175.426129 235.126101 175.561899 
C 235.261871 175.697669 235.423065 175.805376 235.600458 175.878854 
C 235.77785 175.952332 235.967992 175.990154 236.16 175.990154 
C 236.352008 175.990154 236.54215 175.952332 236.719542 175.878854 
C 236.896935 175.805376 237.058129 175.697669 237.193899 175.561899 
C 237.329669 175.426129 237.437376 175.264935 237.510854 175.087542 
C 237.584332 174.91015 237.622154 174.720008 237.622154 174.528 
C 237.622154 174.335992 237.584332 174.14585 237.510854 173.968458 
C 237.437376 173.791065 237.329669 173.629871 237.193899 173.494101 
C 237.058129 173.358331 236.896935 173.250624 236.719542 173.177146 
C 236.54215 173.103668 236.352008 173.065846 236.16 173.065846 
" clip-path="url(#p9cf7161ec7)" style="fill: none; stroke: #b0b0b0; stroke-width: 0.8; stroke-linecap: square"/>
     </g>
     <g id="text_9">
      <!-- 90° -->
      <g transform="translate(235.600458 171.097458) scale(0.1 -0.1)">
       <use xlink:href="#DejaVuSans-39"/>
       <use xlink:href="#DejaVuSans-30" x="63.623047"/>
       <use xlink:href="#DejaVuSans-b0" x="127.246094"/>
      </g>
     </g>
    </g>
    <g id="ytick_2">
     <g id="line2d_10">
      <path d="M 236.16 151.133538 
C 233.087867 151.133538 230.045608 151.738682 227.207327 152.914336 
C 224.369047 154.08999 221.789943 155.813292 219.617618 157.985618 
C 217.445292 160.157943 215.72199 162.737047 214.546336 165.575327 
C 213.370682 168.413608 212.765538 171.455867 212.765538 174.528 
C 212.765538 177.600133 213.370682 180.642392 214.546336 183.480673 
C 215.72199 186.318953 217.445292 188.898057 219.617618 191.070382 
C 221.789943 193.242708 224.369047 194.96601 227.207327 196.141664 
C 230.045608 197.317318 233.087867 197.922462 236.16 197.922462 
C 239.232133 197.922462 242.274392 197.317318 245.112673 196.141664 
C 247.950953 194.96601 250.530057 193.242708 252.702382 191.070382 
C 254.874708 188.898057 256.59801 186.318953 257.773664 183.480673 
C 258.949318 180.642392 259.554462 177.600133 259.554462 174.528 
C 259.554462 171.455867 258.949318 168.413608 257.773664 165.575327 
C 256.59801 162.737047 254.874708 160.157943 252.702382 157.985618 
C 250.530057 155.813292 247.950953 154.08999 245.112673 152.914336 
C 242.274392 151.738682 239.232133 151.133538 236.16 151.133538 
" clip-path="url(#p9cf7161ec7)" style="fill: none; stroke: #b0b0b0; stroke-width: 0.8; stroke-linecap: square"/>
     </g>
    </g>
    <g id="ytick_3">
     <g id="line2d_11">
      <path d="M 236.16 129.201231 
C 230.207743 129.201231 224.313365 130.373696 218.814196 132.651526 
C 213.315028 134.929356 208.318015 138.268253 204.109134 142.477134 
C 199.900253 146.686015 196.561356 151.683028 194.283526 157.182196 
C 192.005696 162.681365 190.833231 168.575743 190.833231 174.528 
C 190.833231 180.480257 192.005696 186.374635 194.283526 191.873804 
C 196.561356 197.372972 199.900253 202.369985 204.109134 206.578866 
C 208.318015 210.787747 213.315028 214.126644 218.814196 216.404474 
C 224.313365 218.682304 230.207743 219.854769 236.16 219.854769 
C 242.112257 219.854769 248.006635 218.682304 253.505804 216.404474 
C 259.004972 214.126644 264.001985 210.787747 268.210866 206.578866 
C 272.419747 202.369985 275.758644 197.372972 278.036474 191.873804 
C 280.314304 186.374635 281.486769 180.480257 281.486769 174.528 
C 281.486769 168.575743 280.314304 162.681365 278.036474 157.182196 
C 275.758644 151.683028 272.419747 146.686015 268.210866 142.477134 
C 264.001985 138.268253 259.004972 134.929356 253.505804 132.651526 
C 248.006635 130.373696 242.112257 129.201231 236.16 129.201231 
" clip-path="url(#p9cf7161ec7)" style="fill: none; stroke: #b0b0b0; stroke-width: 0.8; stroke-linecap: square"/>
     </g>
     <g id="text_10">
      <!-- 60° -->
      <g transform="translate(218.814196 130.571838) scale(0.1 -0.1)">
       <defs>
        <path id="DejaVuSans-36" d="M 2113 2584 
Q 1688 2584 1439 2293 
Q 1191 2003 1191 1497 
Q 1191 994 1439 701 
Q 1688 409 2113 409 
Q 2538 409 2786 701 
Q 3034 994 3034 1497 
Q 3034 2003 2786 2293 
Q 2538 2584 2113 2584 
z
M 3366 4563 
L 3366 3988 
Q 3128 4100 2886 4159 
Q 2644 4219 2406 4219 
Q 1781 4219 1451 3797 
Q 1122 3375 1075 2522 
Q 1259 2794 1537 2939 
Q 1816 3084 2150 3084 
Q 2853 3084 3261 2657 
Q 3669 2231 3669 1497 
Q 3669 778 3244 343 
Q 2819 -91 2113 -91 
Q 1303 -91 875 529 
Q 447 1150 447 2328 
Q 447 3434 972 4092 
Q 1497 4750 2381 4750 
Q 2619 4750 2861 4703 
Q 3103 4656 3366 4563 
z
" transform="scale(0.015625)"/>
       </defs>
       <use xlink:href="#DejaVuSans-36"/>
       <use xlink:href="#DejaVuSans-30" x="63.623047"/>
       <use xlink:href="#DejaVuSans-b0" x="127.246094"/>
      </g>
     </g>
    </g>
    <g id="ytick_4">
     <g id="line2d_12">
      <path d="M 236.16 107.268923 
C 227.327619 107.268923 218.581122 109.00871 210.421066 112.388715 
C 202.26101 115.768721 194.846087 120.723214 188.600651 126.968651 
C 182.355214 133.214087 177.400721 140.62901 174.020715 148.789066 
C 170.64071 156.949122 168.900923 165.695619 168.900923 174.528 
C 168.900923 183.360381 170.64071 192.106878 174.020715 200.266934 
C 177.400721 208.42699 182.355214 215.841913 188.600651 222.087349 
C 194.846087 228.332786 202.26101 233.287279 210.421066 236.667285 
C 218.581122 240.04729 227.327619 241.787077 236.16 241.787077 
C 244.992381 241.787077 253.738878 240.04729 261.898934 236.667285 
C 270.05899 233.287279 277.473913 228.332786 283.719349 222.087349 
C 289.964786 215.841913 294.919279 208.42699 298.299285 200.266934 
C 301.67929 192.106878 303.419077 183.360381 303.419077 174.528 
C 303.419077 165.695619 301.67929 156.949122 298.299285 148.789066 
C 294.919279 140.62901 289.964786 133.214087 283.719349 126.968651 
C 277.473913 120.723214 270.05899 115.768721 261.898934 112.388715 
C 253.738878 109.00871 244.992381 107.268923 236.16 107.268923 
" clip-path="url(#p9cf7161ec7)" style="fill: none; stroke: #b0b0b0; stroke-width: 0.8; stroke-linecap: square"/>
     </g>
    </g>
    <g id="ytick_5">
     <g id="line2d_13">
      <path d="M 236.16 85.336615 
C 224.447495 85.336615 212.848879 87.643724 202.027935 92.125905 
C 191.206991 96.608087 181.374159 103.178175 173.092167 111.460167 
C 164.810175 119.742159 158.240087 129.574991 153.757905 140.395935 
C 149.275724 151.216879 146.968615 162.815495 146.968615 174.528 
C 146.968615 186.240505 149.275724 197.839121 153.757905 208.660065 
C 158.240087 219.481009 164.810175 229.313841 173.092167 237.595833 
C 181.374159 245.877825 191.206991 252.447913 202.027935 256.930095 
C 212.848879 261.412276 224.447495 263.719385 236.16 263.719385 
C 247.872505 263.719385 259.471121 261.412276 270.292065 256.930095 
C 281.113009 252.447913 290.945841 245.877825 299.227833 237.595833 
C 307.509825 229.313841 314.079913 219.481009 318.562095 208.660065 
C 323.044276 197.839121 325.351385 186.240505 325.351385 174.528 
C 325.351385 162.815495 323.044276 151.216879 318.562095 140.395935 
C 314.079913 129.574991 307.509825 119.742159 299.227833 111.460167 
C 290.945841 103.178175 281.113009 96.608087 270.292065 92.125905 
C 259.471121 87.643724 247.872505 85.336615 236.16 85.336615 
" clip-path="url(#p9cf7161ec7)" style="fill: none; stroke: #b0b0b0; stroke-width: 0.8; stroke-linecap: square"/>
     </g>
     <g id="text_11">
      <!-- 30° -->
      <g transform="translate(202.027935 90.046218) scale(0.1 -0.1)">
       <use xlink:href="#DejaVuSans-33"/>
       <use xlink:href="#DejaVuSans-30" x="63.623047"/>
       <use xlink:href="#DejaVuSans-b0" x="127.246094"/>
      </g>
     </g>
    </g>
    <g id="ytick_6">
     <g id="line2d_14">
      <path d="M 236.16 63.404308 
C 221.56737 63.404308 207.116636 66.278738 193.634804 71.863095 
C 180.152972 77.447453 167.902231 85.633136 157.583684 95.951684 
C 147.265136 106.270231 139.079453 118.520972 133.495095 132.002804 
C 127.910738 145.484636 125.036308 159.93537 125.036308 174.528 
C 125.036308 189.12063 127.910738 203.571364 133.495095 217.053196 
C 139.079453 230.535028 147.265136 242.785769 157.583684 253.104316 
C 167.902231 263.422864 180.152972 271.608547 193.634804 277.192905 
C 207.116636 282.777262 221.56737 285.651692 236.16 285.651692 
C 250.75263 285.651692 265.203364 282.777262 278.685196 277.192905 
C 292.167028 271.608547 304.417769 263.422864 314.736316 253.104316 
C 325.054864 242.785769 333.240547 230.535028 338.824905 217.053196 
C 344.409262 203.571364 347.283692 189.12063 347.283692 174.528 
C 347.283692 159.93537 344.409262 145.484636 338.824905 132.002804 
C 333.240547 118.520972 325.054864 106.270231 314.736316 95.951684 
C 304.417769 85.633136 292.167028 77.447453 278.685196 71.863095 
C 265.203364 66.278738 250.75263 63.404308 236.16 63.404308 
" clip-path="url(#p9cf7161ec7)" style="fill: none; stroke: #b0b0b0; stroke-width: 0.8; stroke-linecap: square"/>
     </g>
    </g>
    <g id="ytick_7">
     <g id="line2d_15">
      <path d="M 236.16 41.472 
C 218.687246 41.472 201.384393 44.913752 185.241673 51.600285 
C 169.098954 58.286818 154.430303 68.088097 142.0752 80.4432 
C 129.720097 92.798303 119.918818 107.466954 113.232285 123.609673 
C 106.545752 139.752393 103.104 157.055246 103.104 174.528 
C 103.104 192.000754 106.545752 209.303607 113.232285 225.446327 
C 119.918818 241.589046 129.720097 256.257697 142.0752 268.6128 
C 154.430303 280.967903 169.098954 290.769182 185.241673 297.455715 
C 201.384393 304.142248 218.687246 307.584 236.16 307.584 
C 253.632754 307.584 270.935607 304.142248 287.078327 297.455715 
C 303.221046 290.769182 317.889697 280.967903 330.2448 268.6128 
C 342.599903 256.257697 352.401182 241.589046 359.087715 225.446327 
C 365.774248 209.303607 369.216 192.000754 369.216 174.528 
C 369.216 157.055246 365.774248 139.752393 359.087715 123.609673 
C 352.401182 107.466954 342.599903 92.798303 330.2448 80.4432 
C 317.889697 68.088097 303.221046 58.286818 287.078327 51.600285 
C 270.935607 44.913752 253.632754 41.472 236.16 41.472 
" clip-path="url(#p9cf7161ec7)" style="fill: none; stroke: #b0b0b0; stroke-width: 0.8; stroke-linecap: square"/>
     </g>
     <g id="text_12">
      <!-- 0° Alt. -->
      <g transform="translate(185.241673 49.520597) scale(0.1 -0.1)">
       <defs>
        <path id="DejaVuSans-20" transform="scale(0.015625)"/>
        <path id="DejaVuSans-41" d="M 2188 4044 
L 1331 1722 
L 3047 1722 
L 2188 4044 
z
M 1831 4666 
L 2547 4666 
L 4325 0 
L 3669 0 
L 3244 1197 
L 1141 1197 
L 716 0 
L 50 0 
L 1831 4666 
z
" transform="scale(0.015625)"/>
        <path id="DejaVuSans-6c" d="M 603 4863 
L 1178 4863 
L 1178 0 
L 603 0 
L 603 4863 
z
" transform="scale(0.015625)"/>
        <path id="DejaVuSans-74" d="M 1172 4494 
L 1172 3500 
L 2356 3500 
L 2356 3053 
L 1172 3053 
L 1172 1153 
Q 1172 725 1289 603 
Q 1406 481 1766 481 
L 2356 481 
L 2356 0 
L 1766 0 
Q 1100 0 847 248 
Q 594 497 594 1153 
L 594 3053 
L 172 3053 
L 172 3500 
L 594 3500 
L 594 4494 
L 1172 4494 
z
" transform="scale(0.015625)"/>
        <path id="DejaVuSans-2e" d="M 684 794 
L 1344 794 
L 1344 0 
L 684 0 
L 684 794 
z
" transform="scale(0.015625)"/>
       </defs>
       <use xlink:href="#DejaVuSans-30"/>
       <use xlink:href="#DejaVuSans-b0" x="63.623047"/>
       <use xlink:href="#DejaVuSans-20" x="113.623047"/>
       <use xlink:href="#DejaVuSans-41" x="145.410156"/>
       <use xlink:href="#DejaVuSans-6c" x="213.818359"/>
       <use xlink:href="#DejaVuSans-74" x="241.601562"/>
       <use xlink:href="#DejaVuSans-2e" x="280.810547"/>
      </g>
     </g>
    </g>
   </g>
   <g id="line2d_16">
    <path d="M 317.667369 136.299355 
L 318.111559 135.467553 
" clip-path="url(#p9cf7161ec7)" style="fill: none; stroke: #ff0000; stroke-width: 1.5; stroke-linecap: square"/>
   </g>
   <g id="line2d_17">
    <path d="M 318.111559 135.467553 
L 266.377043 156.481299 
" clip-path="url(#p9cf7161ec7)" style="fill: none; stroke: #008000; stroke-opacity: 0.1; stroke-width: 1.5; stroke-linecap: square"/>
   </g>
   <g id="line2d_18">
    <path d="M 266.377043 156.481299 
L 267.04651 156.199052 
" clip-path="url(#p9cf7161ec7)" style="fill: none; stroke: #ff0000; stroke-width: 1.5; stroke-linecap: square"/>
   </g>
   <g id="line2d_19">
    <path d="M 267.04651 156.199052 
L 322.667695 137.78675 
" clip-path="url(#p9cf7161ec7)" style="fill: none; stroke: #008000; stroke-opacity: 0.112; stroke-width: 1.5; stroke-linecap: square"/>
   </g>
   <g id="line2d_20">
    <path d="M 322.667695 137.78675 
L 323.128649 136.90832 
" clip-path="url(#p9cf7161ec7)" style="fill: none; stroke: #ff0000; stroke-width: 1.5; stroke-linecap: square"/>
   </g>
   <g id="line2d_21">
    <path d="M 323.128649 136.90832 
L 313.252642 148.548233 
" clip-path="url(#p9cf7161ec7)" style="fill: none; stroke: #008000; stroke-opacity: 0.124; stroke-width: 1.5; stroke-linecap: square"/>
   </g>
   <g id="line2d_22">
    <path d="M 313.252642 148.548233 
L 313.836431 147.803219 
" clip-path="url(#p9cf7161ec7)" style="fill: none; stroke: #ff0000; stroke-width: 1.5; stroke-linecap: square"/>
   </g>
   <g id="line2d_23">
    <path d="M 313.836431 147.803219 
L 235.577973 268.204466 
" clip-path="url(#p9cf7161ec7)" style="fill: none; stroke: #008000; stroke-opacity: 0.136; stroke-width: 1.5; stroke-linecap: square"/>
   </g>
   <g id="line2d_24">
    <path d="M 235.577973 268.204466 
L 236.830157 268.204271 
" clip-path="url(#p9cf7161ec7)" style="fill: none; stroke: #ff0000; stroke-width: 1.5; stroke-linecap: square"/>
   </g>
   <g id="line2d_25">
    <path d="M 236.830157 268.204271 
L 235.60744 228.699026 
" clip-path="url(#p9cf7161ec7)" style="fill: none; stroke: #008000; stroke-opacity: 0.148; stroke-width: 1.5; stroke-linecap: square"/>
   </g>
   <g id="line2d_26">
    <path d="M 235.60744 228.699026 
L 236.785588 228.698796 
" clip-path="url(#p9cf7161ec7)" style="fill: none; stroke: #ff0000; stroke-width: 1.5; stroke-linecap: square"/>
   </g>
   <g id="line2d_27">
    <path d="M 236.785588 228.698796 
L 236.672766 275.616595 
" clip-path="url(#p9cf7161ec7)" style="fill: none; stroke: #008000; stroke-opacity: 0.16; stroke-width: 1.5; stroke-linecap: square"/>
   </g>
   <g id="line2d_28">
    <path d="M 236.672766 275.616595 
L 237.917766 275.612019 
" clip-path="url(#p9cf7161ec7)" style="fill: none; stroke: #ff0000; stroke-width: 1.5; stroke-linecap: square"/>
   </g>
   <g id="line2d_29">
    <path d="M 237.917766 275.612019 
L 236.815586 272.609779 
" clip-path="url(#p9cf7161ec7)" style="fill: none; stroke: #008000; stroke-opacity: 0.172; stroke-width: 1.5; stroke-linecap: square"/>
   </g>
   <g id="line2d_30">
    <path d="M 236.815586 272.609779 
L 238.064434 272.604411 
" clip-path="url(#p9cf7161ec7)" style="fill: none; stroke: #ff0000; stroke-width: 1.5; stroke-linecap: square"/>
   </g>
   <g id="line2d_31">
    <path d="M 238.064434 272.604411 
L 235.561977 276.931572 
" clip-path="url(#p9cf7161ec7)" style="fill: none; stroke: #008000; stroke-opacity: 0.184; stroke-width: 1.5; stroke-linecap: square"/>
   </g>
   <g id="line2d_32">
    <path d="M 235.561977 276.931572 
L 236.804881 276.93148 
" clip-path="url(#p9cf7161ec7)" style="fill: none; stroke: #ff0000; stroke-width: 1.5; stroke-linecap: square"/>
   </g>
   <g id="line2d_33">
    <path d="M 236.804881 276.93148 
L 235.732961 205.895937 
" clip-path="url(#p9cf7161ec7)" style="fill: none; stroke: #008000; stroke-opacity: 0.196; stroke-width: 1.5; stroke-linecap: square"/>
   </g>
   <g id="line2d_34">
    <path d="M 235.732961 205.895937 
L 236.797752 205.895173 
" clip-path="url(#p9cf7161ec7)" style="fill: none; stroke: #ff0000; stroke-width: 1.5; stroke-linecap: square"/>
   </g>
   <g id="line2d_35">
    <path d="M 236.797752 205.895173 
L 235.639287 276.073996 
" clip-path="url(#p9cf7161ec7)" style="fill: none; stroke: #008000; stroke-opacity: 0.208; stroke-width: 1.5; stroke-linecap: square"/>
   </g>
   <g id="line2d_36">
    <path d="M 235.639287 276.073996 
L 236.88359 276.073591 
" clip-path="url(#p9cf7161ec7)" style="fill: none; stroke: #ff0000; stroke-width: 1.5; stroke-linecap: square"/>
   </g>
   <g id="line2d_37">
    <path d="M 236.88359 276.073591 
L 150.918284 211.625846 
" clip-path="url(#p9cf7161ec7)" style="fill: none; stroke: #008000; stroke-opacity: 0.22; stroke-width: 1.5; stroke-linecap: square"/>
   </g>
   <g id="line2d_38">
    <path d="M 150.918284 211.625846 
L 152.013068 212.208678 
" clip-path="url(#p9cf7161ec7)" style="fill: none; stroke: #ff0000; stroke-width: 1.5; stroke-linecap: square"/>
   </g>
   <g id="line2d_39">
    <path d="M 152.013068 212.208678 
L 144.553836 195.944459 
" clip-path="url(#p9cf7161ec7)" style="fill: none; stroke: #008000; stroke-opacity: 0.232; stroke-width: 1.5; stroke-linecap: square"/>
   </g>
   <g id="line2d_40">
    <path d="M 144.553836 195.944459 
L 145.5558 196.63307 
" clip-path="url(#p9cf7161ec7)" style="fill: none; stroke: #ff0000; stroke-width: 1.5; stroke-linecap: square"/>
   </g>
   <g id="line2d_41">
    <path d="M 145.5558 196.63307 
L 190.28291 257.683441 
" clip-path="url(#p9cf7161ec7)" style="fill: none; stroke: #008000; stroke-opacity: 0.244; stroke-width: 1.5; stroke-linecap: square"/>
   </g>
   <g id="line2d_42">
    <path d="M 190.28291 257.683441 
L 191.526053 257.903919 
" clip-path="url(#p9cf7161ec7)" style="fill: none; stroke: #ff0000; stroke-width: 1.5; stroke-linecap: square"/>
   </g>
   <g id="line2d_43">
    <path d="M 191.526053 257.903919 
L 149.807784 194.149593 
" clip-path="url(#p9cf7161ec7)" style="fill: none; stroke: #008000; stroke-opacity: 0.256; stroke-width: 1.5; stroke-linecap: square"/>
   </g>
   <g id="line2d_44">
    <path d="M 149.807784 194.149593 
L 150.797826 194.806134 
" clip-path="url(#p9cf7161ec7)" style="fill: none; stroke: #ff0000; stroke-width: 1.5; stroke-linecap: square"/>
   </g>
   <g id="patch_3">
    <path d="M 236.16 41.472 
C 218.687246 41.472 201.384393 44.913752 185.241673 51.600285 
C 169.098954 58.286818 154.430303 68.088097 142.0752 80.4432 
C 129.720097 92.798303 119.918818 107.466954 113.232285 123.609673 
C 106.545752 139.752393 103.104 157.055246 103.104 174.528 
C 103.104 192.000754 106.545752 209.303607 113.232285 225.446327 
C 119.918818 241.589046 129.720097 256.257697 142.0752 268.6128 
C 154.430303 280.967903 169.098954 290.769182 185.241673 297.455715 
C 201.384393 304.142248 218.687246 307.584 236.16 307.584 
C 253.632754 307.584 270.935607 304.142248 287.078327 297.455715 
C 303.221046 290.769182 317.889697 280.967903 330.2448 268.6128 
C 342.599903 256.257697 352.401182 241.589046 359.087715 225.446327 
C 365.774248 209.303607 369.216 192.000754 369.216 174.528 
C 369.216 157.055246 365.774248 139.752393 359.087715 123.609673 
C 352.401182 107.466954 342.599903 92.798303 330.2448 80.4432 
C 317.889697 68.088097 303.221046 58.286818 287.078327 51.600285 
C 270.935607 44.913752 253.632754 41.472 236.16 41.472 
" style="fill: none; stroke: #000000; stroke-width: 0.8; stroke-linejoin: miter; stroke-linecap: square"/>
   </g>
   <g id="text_13">
    <!-- TYC 2667-863-1 -->
    <g style="opacity: 0.05" transform="translate(317.667369 136.299355) scale(0.1 -0.1)">
     <defs>
      <path id="DejaVuSans-54" d="M -19 4666 
L 3928 4666 
L 3928 4134 
L 2272 4134 
L 2272 0 
L 1638 0 
L 1638 4134 
L -19 4134 
L -19 4666 
z
" transform="scale(0.015625)"/>
      <path id="DejaVuSans-59" d="M -13 4666 
L 666 4666 
L 1959 2747 
L 3244 4666 
L 3922 4666 
L 2272 2222 
L 2272 0 
L 1638 0 
L 1638 2222 
L -13 4666 
z
" transform="scale(0.015625)"/>
      <path id="DejaVuSans-43" d="M 4122 4306 
L 4122 3641 
Q 3803 3938 3442 4084 
Q 3081 4231 2675 4231 
Q 1875 4231 1450 3742 
Q 1025 3253 1025 2328 
Q 1025 1406 1450 917 
Q 1875 428 2675 428 
Q 3081 428 3442 575 
Q 3803 722 4122 1019 
L 4122 359 
Q 3791 134 3420 21 
Q 3050 -91 2638 -91 
Q 1578 -91 968 557 
Q 359 1206 359 2328 
Q 359 3453 968 4101 
Q 1578 4750 2638 4750 
Q 3056 4750 3426 4639 
Q 3797 4528 4122 4306 
z
" transform="scale(0.015625)"/>
      <path id="DejaVuSans-2d" d="M 313 2009 
L 1997 2009 
L 1997 1497 
L 313 1497 
L 313 2009 
z
" transform="scale(0.015625)"/>
     </defs>
     <use xlink:href="#DejaVuSans-54"/>
     <use xlink:href="#DejaVuSans-59" x="61.083984"/>
     <use xlink:href="#DejaVuSans-43" x="116.667969"/>
     <use xlink:href="#DejaVuSans-20" x="186.492188"/>
     <use xlink:href="#DejaVuSans-32" x="218.279297"/>
     <use xlink:href="#DejaVuSans-36" x="281.902344"/>
     <use xlink:href="#DejaVuSans-36" x="345.525391"/>
     <use xlink:href="#DejaVuSans-37" x="409.148438"/>
     <use xlink:href="#DejaVuSans-2d" x="472.771484"/>
     <use xlink:href="#DejaVuSans-38" x="508.855469"/>
     <use xlink:href="#DejaVuSans-36" x="572.478516"/>
     <use xlink:href="#DejaVuSans-33" x="636.101562"/>
     <use xlink:href="#DejaVuSans-2d" x="699.724609"/>
     <use xlink:href="#DejaVuSans-31" x="735.808594"/>
    </g>
   </g>
   <g id="text_14">
    <!-- TYC 3626-352-1 -->
    <g style="opacity: 0.05" transform="translate(266.377043 156.481299) scale(0.1 -0.1)">
     <use xlink:href="#DejaVuSans-54"/>
     <use xlink:href="#DejaVuSans-59" x="61.083984"/>
     <use xlink:href="#DejaVuSans-43" x="116.667969"/>
     <use xlink:href="#DejaVuSans-20" x="186.492188"/>
     <use xlink:href="#DejaVuSans-33" x="218.279297"/>
     <use xlink:href="#DejaVuSans-36" x="281.902344"/>
     <use xlink:href="#DejaVuSans-32" x="345.525391"/>
     <use xlink:href="#DejaVuSans-36" x="409.148438"/>
     <use xlink:href="#DejaVuSans-2d" x="472.771484"/>
     <use xlink:href="#DejaVuSans-33" x="508.855469"/>
     <use xlink:href="#DejaVuSans-35" x="572.478516"/>
     <use xlink:href="#DejaVuSans-32" x="636.101562"/>
     <use xlink:href="#DejaVuSans-2d" x="699.724609"/>
     <use xlink:href="#DejaVuSans-31" x="735.808594"/>
    </g>
   </g>
   <g id="text_15">
    <!-- TYC 2660-2053-1 -->
    <g style="opacity: 0.05" transform="translate(322.667695 137.78675) scale(0.1 -0.1)">
     <use xlink:href="#DejaVuSans-54"/>
     <use xlink:href="#DejaVuSans-59" x="61.083984"/>
     <use xlink:href="#DejaVuSans-43" x="116.667969"/>
     <use xlink:href="#DejaVuSans-20" x="186.492188"/>
     <use xlink:href="#DejaVuSans-32" x="218.279297"/>
     <use xlink:href="#DejaVuSans-36" x="281.902344"/>
     <use xlink:href="#DejaVuSans-36" x="345.525391"/>
     <use xlink:href="#DejaVuSans-30" x="409.148438"/>
     <use xlink:href="#DejaVuSans-2d" x="472.771484"/>
     <use xlink:href="#DejaVuSans-32" x="508.855469"/>
     <use xlink:href="#DejaVuSans-30" x="572.478516"/>
     <use xlink:href="#DejaVuSans-35" x="636.101562"/>
     <use xlink:href="#DejaVuSans-33" x="699.724609"/>
     <use xlink:href="#DejaVuSans-2d" x="763.347656"/>
     <use xlink:href="#DejaVuSans-31" x="799.431641"/>
    </g>
   </g>
   <g id="text_16">
    <!-- TYC 2693-1451-1 -->
    <g style="opacity: 0.05" transform="translate(313.252642 148.548233) scale(0.1 -0.1)">
     <use xlink:href="#DejaVuSans-54"/>
     <use xlink:href="#DejaVuSans-59" x="61.083984"/>
     <use xlink:href="#DejaVuSans-43" x="116.667969"/>
     <use xlink:href="#DejaVuSans-20" x="186.492188"/>
     <use xlink:href="#DejaVuSans-32" x="218.279297"/>
     <use xlink:href="#DejaVuSans-36" x="281.902344"/>
     <use xlink:href="#DejaVuSans-39" x="345.525391"/>
     <use xlink:href="#DejaVuSans-33" x="409.148438"/>
     <use xlink:href="#DejaVuSans-2d" x="472.771484"/>
     <use xlink:href="#DejaVuSans-31" x="508.855469"/>
     <use xlink:href="#DejaVuSans-34" x="572.478516"/>
     <use xlink:href="#DejaVuSans-35" x="636.101562"/>
     <use xlink:href="#DejaVuSans-31" x="699.724609"/>
     <use xlink:href="#DejaVuSans-2d" x="763.347656"/>
     <use xlink:href="#DejaVuSans-31" x="799.431641"/>
    </g>
   </g>
   <g id="text_17">
    <!-- TYC 6522-2584-1 -->
    <g style="opacity: 0.05" transform="translate(235.577973 268.204466) scale(0.1 -0.1)">
     <use xlink:href="#DejaVuSans-54"/>
     <use xlink:href="#DejaVuSans-59" x="61.083984"/>
     <use xlink:href="#DejaVuSans-43" x="116.667969"/>
     <use xlink:href="#DejaVuSans-20" x="186.492188"/>
     <use xlink:href="#DejaVuSans-36" x="218.279297"/>
     <use xlink:href="#DejaVuSans-35" x="281.902344"/>
     <use xlink:href="#DejaVuSans-32" x="345.525391"/>
     <use xlink:href="#DejaVuSans-32" x="409.148438"/>
     <use xlink:href="#DejaVuSans-2d" x="472.771484"/>
     <use xlink:href="#DejaVuSans-32" x="508.855469"/>
     <use xlink:href="#DejaVuSans-35" x="572.478516"/>
     <use xlink:href="#DejaVuSans-38" x="636.101562"/>
     <use xlink:href="#DejaVuSans-34" x="699.724609"/>
     <use xlink:href="#DejaVuSans-2d" x="763.347656"/>
     <use xlink:href="#DejaVuSans-31" x="799.431641"/>
    </g>
   </g>
   <g id="text_18">
    <!-- TYC 183-1683-1 -->
    <g style="opacity: 0.05" transform="translate(235.60744 228.699026) scale(0.1 -0.1)">
     <use xlink:href="#DejaVuSans-54"/>
     <use xlink:href="#DejaVuSans-59" x="61.083984"/>
     <use xlink:href="#DejaVuSans-43" x="116.667969"/>
     <use xlink:href="#DejaVuSans-20" x="186.492188"/>
     <use xlink:href="#DejaVuSans-31" x="218.279297"/>
     <use xlink:href="#DejaVuSans-38" x="281.902344"/>
     <use xlink:href="#DejaVuSans-33" x="345.525391"/>
     <use xlink:href="#DejaVuSans-2d" x="409.148438"/>
     <use xlink:href="#DejaVuSans-31" x="445.232422"/>
     <use xlink:href="#DejaVuSans-36" x="508.855469"/>
     <use xlink:href="#DejaVuSans-38" x="572.478516"/>
     <use xlink:href="#DejaVuSans-33" x="636.101562"/>
     <use xlink:href="#DejaVuSans-2d" x="699.724609"/>
     <use xlink:href="#DejaVuSans-31" x="735.808594"/>
    </g>
   </g>
   <g id="text_19">
    <!-- TYC 6552-1166-1 -->
    <g style="opacity: 0.05" transform="translate(236.672766 275.616595) scale(0.1 -0.1)">
     <use xlink:href="#DejaVuSans-54"/>
     <use xlink:href="#DejaVuSans-59" x="61.083984"/>
     <use xlink:href="#DejaVuSans-43" x="116.667969"/>
     <use xlink:href="#DejaVuSans-20" x="186.492188"/>
     <use xlink:href="#DejaVuSans-36" x="218.279297"/>
     <use xlink:href="#DejaVuSans-35" x="281.902344"/>
     <use xlink:href="#DejaVuSans-35" x="345.525391"/>
     <use xlink:href="#DejaVuSans-32" x="409.148438"/>
     <use xlink:href="#DejaVuSans-2d" x="472.771484"/>
     <use xlink:href="#DejaVuSans-31" x="508.855469"/>
     <use xlink:href="#DejaVuSans-31" x="572.478516"/>
     <use xlink:href="#DejaVuSans-36" x="636.101562"/>
     <use xlink:href="#DejaVuSans-36" x="699.724609"/>
     <use xlink:href="#DejaVuSans-2d" x="763.347656"/>
     <use xlink:href="#DejaVuSans-31" x="799.431641"/>
    </g>
   </g>
   <g id="text_20">
    <!-- TYC 6548-3183-1 -->
    <g style="opacity: 0.05" transform="translate(236.815586 272.609779) scale(0.1 -0.1)">
     <use xlink:href="#DejaVuSans-54"/>
     <use xlink:href="#DejaVuSans-59" x="61.083984"/>
     <use xlink:href="#DejaVuSans-43" x="116.667969"/>
     <use xlink:href="#DejaVuSans-20" x="186.492188"/>
     <use xlink:href="#DejaVuSans-36" x="218.279297"/>
     <use xlink:href="#DejaVuSans-35" x="281.902344"/>
     <use xlink:href="#DejaVuSans-34" x="345.525391"/>
     <use xlink:href="#DejaVuSans-38" x="409.148438"/>
     <use xlink:href="#DejaVuSans-2d" x="472.771484"/>
     <use xlink:href="#DejaVuSans-33" x="508.855469"/>
     <use xlink:href="#DejaVuSans-31" x="572.478516"/>
     <use xlink:href="#DejaVuSans-38" x="636.101562"/>
     <use xlink:href="#DejaVuSans-33" x="699.724609"/>
     <use xlink:href="#DejaVuSans-2d" x="763.347656"/>
     <use xlink:href="#DejaVuSans-31" x="799.431641"/>
    </g>
   </g>
   <g id="text_21">
    <!-- TYC 6567-1949-1 -->
    <g style="opacity: 0.05" transform="translate(235.561977 276.931572) scale(0.1 -0.1)">
     <use xlink:href="#DejaVuSans-54"/>
     <use xlink:href="#DejaVuSans-59" x="61.083984"/>
     <use xlink:href="#DejaVuSans-43" x="116.667969"/>
     <use xlink:href="#DejaVuSans-20" x="186.492188"/>
     <use xlink:href="#DejaVuSans-36" x="218.279297"/>
     <use xlink:href="#DejaVuSans-35" x="281.902344"/>
     <use xlink:href="#DejaVuSans-36" x="345.525391"/>
     <use xlink:href="#DejaVuSans-37" x="409.148438"/>
     <use xlink:href="#DejaVuSans-2d" x="472.771484"/>
     <use xlink:href="#DejaVuSans-31" x="508.855469"/>
     <use xlink:href="#DejaVuSans-39" x="572.478516"/>
     <use xlink:href="#DejaVuSans-34" x="636.101562"/>
     <use xlink:href="#DejaVuSans-39" x="699.724609"/>
     <use xlink:href="#DejaVuSans-2d" x="763.347656"/>
     <use xlink:href="#DejaVuSans-31" x="799.431641"/>
    </g>
   </g>
   <g id="text_22">
    <!-- TYC 1414-843-1 -->
    <g style="opacity: 0.05" transform="translate(235.732961 205.895937) scale(0.1 -0.1)">
     <use xlink:href="#DejaVuSans-54"/>
     <use xlink:href="#DejaVuSans-59" x="61.083984"/>
     <use xlink:href="#DejaVuSans-43" x="116.667969"/>
     <use xlink:href="#DejaVuSans-20" x="186.492188"/>
     <use xlink:href="#DejaVuSans-31" x="218.279297"/>
     <use xlink:href="#DejaVuSans-34" x="281.902344"/>
     <use xlink:href="#DejaVuSans-31" x="345.525391"/>
     <use xlink:href="#DejaVuSans-34" x="409.148438"/>
     <use xlink:href="#DejaVuSans-2d" x="472.771484"/>
     <use xlink:href="#DejaVuSans-38" x="508.855469"/>
     <use xlink:href="#DejaVuSans-34" x="572.478516"/>
     <use xlink:href="#DejaVuSans-33" x="636.101562"/>
     <use xlink:href="#DejaVuSans-2d" x="699.724609"/>
     <use xlink:href="#DejaVuSans-31" x="735.808594"/>
    </g>
   </g>
   <g id="text_23">
    <!-- TYC 6630-609-1 -->
    <g style="opacity: 0.05" transform="translate(235.639287 276.073996) scale(0.1 -0.1)">
     <use xlink:href="#DejaVuSans-54"/>
     <use xlink:href="#DejaVuSans-59" x="61.083984"/>
     <use xlink:href="#DejaVuSans-43" x="116.667969"/>
     <use xlink:href="#DejaVuSans-20" x="186.492188"/>
     <use xlink:href="#DejaVuSans-36" x="218.279297"/>
     <use xlink:href="#DejaVuSans-36" x="281.902344"/>
     <use xlink:href="#DejaVuSans-33" x="345.525391"/>
     <use xlink:href="#DejaVuSans-30" x="409.148438"/>
     <use xlink:href="#DejaVuSans-2d" x="472.771484"/>
     <use xlink:href="#DejaVuSans-36" x="508.855469"/>
     <use xlink:href="#DejaVuSans-30" x="572.478516"/>
     <use xlink:href="#DejaVuSans-39" x="636.101562"/>
     <use xlink:href="#DejaVuSans-2d" x="699.724609"/>
     <use xlink:href="#DejaVuSans-31" x="735.808594"/>
    </g>
   </g>
   <g id="text_24">
    <!-- TYC 353-851-1 -->
    <g style="opacity: 0.05" transform="translate(150.918284 211.625846) scale(0.1 -0.1)">
     <use xlink:href="#DejaVuSans-54"/>
     <use xlink:href="#DejaVuSans-59" x="61.083984"/>
     <use xlink:href="#DejaVuSans-43" x="116.667969"/>
     <use xlink:href="#DejaVuSans-20" x="186.492188"/>
     <use xlink:href="#DejaVuSans-33" x="218.279297"/>
     <use xlink:href="#DejaVuSans-35" x="281.902344"/>
     <use xlink:href="#DejaVuSans-33" x="345.525391"/>
     <use xlink:href="#DejaVuSans-2d" x="409.148438"/>
     <use xlink:href="#DejaVuSans-38" x="445.232422"/>
     <use xlink:href="#DejaVuSans-35" x="508.855469"/>
     <use xlink:href="#DejaVuSans-31" x="572.478516"/>
     <use xlink:href="#DejaVuSans-2d" x="636.101562"/>
     <use xlink:href="#DejaVuSans-31" x="672.185547"/>
    </g>
   </g>
   <g id="text_25">
    <!-- TYC 381-1067-1 -->
    <g style="opacity: 0.05" transform="translate(144.553836 195.944459) scale(0.1 -0.1)">
     <use xlink:href="#DejaVuSans-54"/>
     <use xlink:href="#DejaVuSans-59" x="61.083984"/>
     <use xlink:href="#DejaVuSans-43" x="116.667969"/>
     <use xlink:href="#DejaVuSans-20" x="186.492188"/>
     <use xlink:href="#DejaVuSans-33" x="218.279297"/>
     <use xlink:href="#DejaVuSans-38" x="281.902344"/>
     <use xlink:href="#DejaVuSans-31" x="345.525391"/>
     <use xlink:href="#DejaVuSans-2d" x="409.148438"/>
     <use xlink:href="#DejaVuSans-31" x="445.232422"/>
     <use xlink:href="#DejaVuSans-30" x="508.855469"/>
     <use xlink:href="#DejaVuSans-36" x="572.478516"/>
     <use xlink:href="#DejaVuSans-37" x="636.101562"/>
     <use xlink:href="#DejaVuSans-2d" x="699.724609"/>
     <use xlink:href="#DejaVuSans-31" x="735.808594"/>
    </g>
   </g>
   <g id="text_26">
    <!-- TYC 6146-86-1 -->
    <g style="opacity: 0.05" transform="translate(190.28291 257.683441) scale(0.1 -0.1)">
     <use xlink:href="#DejaVuSans-54"/>
     <use xlink:href="#DejaVuSans-59" x="61.083984"/>
     <use xlink:href="#DejaVuSans-43" x="116.667969"/>
     <use xlink:href="#DejaVuSans-20" x="186.492188"/>
     <use xlink:href="#DejaVuSans-36" x="218.279297"/>
     <use xlink:href="#DejaVuSans-31" x="281.902344"/>
     <use xlink:href="#DejaVuSans-34" x="345.525391"/>
     <use xlink:href="#DejaVuSans-36" x="409.148438"/>
     <use xlink:href="#DejaVuSans-2d" x="472.771484"/>
     <use xlink:href="#DejaVuSans-38" x="508.855469"/>
     <use xlink:href="#DejaVuSans-36" x="572.478516"/>
     <use xlink:href="#DejaVuSans-2d" x="636.101562"/>
     <use xlink:href="#DejaVuSans-31" x="672.185547"/>
    </g>
   </g>
   <g id="text_27">
    <!-- TYC 963-937-1 -->
    <g style="opacity: 0.05" transform="translate(149.807784 194.149593) scale(0.1 -0.1)">
     <use xlink:href="#DejaVuSans-54"/>
     <use xlink:href="#DejaVuSans-59" x="61.083984"/>
     <use xlink:href="#DejaVuSans-43" x="116.667969"/>
     <use xlink:href="#DejaVuSans-20" x="186.492188"/>
     <use xlink:href="#DejaVuSans-39" x="218.279297"/>
     <use xlink:href="#DejaVuSans-36" x="281.902344"/>
     <use xlink:href="#DejaVuSans-33" x="345.525391"/>
     <use xlink:href="#DejaVuSans-2d" x="409.148438"/>
     <use xlink:href="#DejaVuSans-39" x="445.232422"/>
     <use xlink:href="#DejaVuSans-33" x="508.855469"/>
     <use xlink:href="#DejaVuSans-37" x="572.478516"/>
     <use xlink:href="#DejaVuSans-2d" x="636.101562"/>
     <use xlink:href="#DejaVuSans-31" x="672.185547"/>
    </g>
   </g>
  </g>
 </g>
 <defs>
  <clipPath id="p9cf7161ec7">
   <path d="M 369.216 174.528 
C 369.216 157.055246 365.774248 139.752393 359.087715 123.609673 
C 352.401182 107.466954 342.599903 92.798303 330.2448 80.4432 
C 317.889697 68.088097 303.221046 58.286818 287.078327 51.600285 
C 270.935607 44.913752 253.632754 41.472 236.16 41.472 
C 218.687246 41.472 201.384393 44.913752 185.241673 51.600285 
C 169.098954 58.286818 154.430303 68.088097 142.0752 80.4432 
C 129.720097 92.798303 119.918818 107.466954 113.232285 123.609673 
C 106.545752 139.752393 103.104 157.055246 103.104 174.528 
C 103.104 192.000754 106.545752 209.303607 113.232285 225.446327 
C 119.918818 241.589046 129.720097 256.257697 142.0752 268.6128 
C 154.430303 280.967903 169.098954 290.769182 185.241673 297.455715 
C 201.384393 304.142248 218.687246 307.584 236.16 307.584 
C 253.632754 307.584 270.935607 304.142248 287.078327 297.455715 
C 303.221046 290.769182 317.889697 280.967903 330.2448 268.6128 
C 342.599903 256.257697 352.401182 241.589046 359.087715 225.446327 
C 365.774248 209.303607 369.216 192.000754 369.216 174.528 
M 236.16 174.528 
C 236.16 174.528 236.16 174.528 236.16 174.528 
C 236.16 174.528 236.16 174.528 236.16 174.528 
C 236.16 174.528 236.16 174.528 236.16 174.528 
C 236.16 174.528 236.16 174.528 236.16 174.528 
C 236.16 174.528 236.16 174.528 236.16 174.528 
C 236.16 174.528 236.16 174.528 236.16 174.528 
C 236.16 174.528 236.16 174.528 236.16 174.528 
C 236.16 174.528 236.16 174.528 236.16 174.528 
C 236.16 174.528 236.16 174.528 236.16 174.528 
C 236.16 174.528 236.16 174.528 236.16 174.528 
C 236.16 174.528 236.16 174.528 236.16 174.528 
C 236.16 174.528 236.16 174.528 236.16 174.528 
C 236.16 174.528 236.16 174.528 236.16 174.528 
C 236.16 174.528 236.16 174.528 236.16 174.528 
C 236.16 174.528 236.16 174.528 236.16 174.528 
C 236.16 174.528 236.16 174.528 236.16 174.528 
z
"/>
  </clipPath>
 </defs>
</svg>
